<svg xmlns="http://www.w3.org/2000/svg" version="1.1" xmlns:xlink="http://www.w3.org/1999/xlink" viewBox="0 0 200 200"><rect width="200" height="200" fill="url('#gradient')"></rect><defs><linearGradient id="gradient" gradientTransform="rotate(98 0.5 0.5)"><stop offset="0%" stop-color="#f99610"></stop><stop offset="100%" stop-color="#d71527"></stop></linearGradient></defs><g><g fill="#174840" transform="matrix(2.522070425245334,0,0,2.522070425245334,34.30025908371016,113.39469459673889)" stroke="#3a7671" stroke-width="0.3"><path d="M13.12-7.47L13.12-6.82Q13.12-4.74 12.34-3.13Q11.57-1.53 10.15-0.67Q8.73 0.20 6.91 0.20Q5.10 0.20 3.69-0.64Q2.29-1.47 1.50-3.03Q0.71-4.58 0.67-6.59L0.67-6.59L0.67-7.39Q0.67-9.48 1.44-11.08Q2.21-12.68 3.64-13.54Q5.07-14.41 6.89-14.41L6.89-14.41Q8.70-14.41 10.12-13.55Q11.53-12.70 12.32-11.11Q13.11-9.52 13.12-7.47L13.12-7.47ZM9.63-6.76L9.63-7.41Q9.63-9.53 8.92-10.63Q8.21-11.73 6.89-11.73L6.89-11.73Q4.32-11.73 4.17-7.86L4.17-7.86L4.16-6.82Q4.16-4.73 4.85-3.60Q5.55-2.48 6.91-2.48L6.91-2.48Q8.21-2.48 8.92-3.58Q9.62-4.69 9.63-6.76L9.63-6.76ZM24.54-5.36L24.54-5.21Q24.54-2.74 23.43-1.27Q22.32 0.20 20.44 0.20L20.44 0.20Q18.98 0.20 18.05-0.87L18.05-0.87L18.05 4.06L14.76 4.06L14.76-10.57L17.83-10.57L17.93-9.59Q18.88-10.76 20.42-10.76L20.42-10.76Q22.37-10.76 23.46-9.32Q24.54-7.88 24.54-5.36L24.54-5.36ZM21.25-5.06L21.25-5.41Q21.25-8.22 19.61-8.22L19.61-8.22Q18.44-8.22 18.05-7.38L18.05-7.38L18.05-3.22Q18.48-2.34 19.63-2.34L19.63-2.34Q21.20-2.34 21.25-5.06L21.25-5.06ZM28.44-10.57L30.11-4.61L31.87-10.57L35.39-10.57L31.08 1.77L30.90 2.22Q29.98 4.27 27.66 4.27L27.66 4.27Q27.01 4.27 26.30 4.07L26.30 4.07L26.30 1.72L26.73 1.72Q27.42 1.72 27.79 1.52Q28.15 1.32 28.33 0.80L28.33 0.80L28.59 0.10L24.92-10.57L28.44-10.57ZM36.48-10.57L39.79-10.57L39.79 0.36Q39.78 2.24 38.71 3.25Q37.65 4.27 35.74 4.27L35.74 4.27Q34.92 4.27 34.19 4.10L34.19 4.10L34.19 1.61Q34.76 1.70 35.12 1.70L35.12 1.70Q36.48 1.70 36.48 0.34L36.48 0.34L36.48-10.57ZM36.24-13.29L36.24-13.29Q36.24-13.99 36.75-14.44Q37.26-14.89 38.07-14.89Q38.88-14.89 39.38-14.44Q39.89-13.99 39.89-13.29Q39.89-12.59 39.38-12.14Q38.88-11.69 38.07-11.69Q37.26-11.69 36.75-12.14Q36.24-12.59 36.24-13.29ZM41.24-4.82L41.23-5.38Q41.23-6.96 41.85-8.20Q42.46-9.43 43.61-10.10Q44.77-10.76 46.32-10.76L46.32-10.76Q48.69-10.76 50.06-9.29Q51.43-7.82 51.43-5.29L51.43-5.29L51.43-5.18Q51.43-2.71 50.05-1.25Q48.68 0.20 46.34 0.20L46.34 0.20Q44.08 0.20 42.71-1.16Q41.35-2.51 41.24-4.82L41.24-4.82ZM44.53-5.77L44.52-5.18Q44.52-3.71 44.98-3.03Q45.44-2.34 46.34-2.34L46.34-2.34Q48.10-2.34 48.13-5.05L48.13-5.05L48.13-5.38Q48.13-8.22 46.32-8.22L46.32-8.22Q44.67-8.22 44.53-5.77L44.53-5.77Z"></path></g></g></svg>